<svg xmlns="http://www.w3.org/2000/svg" width="797" height="885" fill="none" viewBox="0 0 797 885">
    <path fill="#4F5255" fillRule="evenodd" d="M503.5 0l11 6.5H528l10.5 20 6 16.5v21.5h7V95h45v72h136v43.5h24v22h14V245H787v25h-30.5v7.5H796V406h-25.5v63.5H796V530h-66.5L652 577.5h-29.5v21H560V565h-8v44.5h-26.5v6H552v105H422V777h51v13.5l-9.5 8L473 814v32.5L417.5 882l-97.5 2.5-50-34V728H129v-36h16.5v-45.5h-5V676h-117V575H60l1.5-55H55v-76.5H23.5v-85H0V260h145.5v-36.5H246V165h105.5V95h102V33L469 14h10.5l13-14h11zm-358 598.5V628h-5v-29.5H92v-38h33.5v-52H92v-65h74v-21h71v62h25.5v4.5H237v149h70v12.5h-37V676h-58v-77.5h-66.5zm216.5 52h-35V638h7.5v-28.5h-3v-11H322v-16h45.5v7.5H350v28.5h85.5V647h6v7H422v22h-60v-25.5zm74-60.5h27.5v57h-5v7H473v-24l17.5-14.5h8.5v-6h-26V524h30v-6h-8v-68.5h-15.5v-58H552V410h8v-18.5h28V406h51v-14.5h-26.5V292H647v-29.5h-50.5v87h-21v20H552v-11h-65.5V354H473v56h-69.5v8.5h26V518h34v64.5H422v7.5h14zm-56.5-171.5V410h-48v-85h-14v11h-75v8h75v29H290v6h27.5v105.5H286v4.5h31.5v29H358v-56.5h-26.5v-43h48zm-79 294h95V779h-95v-66.5zm209-572.5h-76v64H274v80.5h41.5v14H332v-6l23.5-24H373V228h60.5v40.5h17l23.5 24V328h14.5v-15.5h66V204h-45v-64zm87.5 64h108.5v66.5h-15v-50H649V234h-52v-30zm-37.5 330.5H549v-11h-29V519h8.5v-68h25v-23h6v9.5H585l3.5-4.5H660v28h56.5v-57.5h15v65l-84 52.5h-54v-20.5h-34v34zM185 260.5h37.5V335h9.5v8h-9.5v29.5h36v6H237V398h-74v-38.5h22v-99z" clipRule="evenodd"/>
    <path fill="#fff" fillOpacity=".1" fillRule="evenodd" d="M761 278h30c2.761 0 5 2.239 5 5v69.928c0 2.789-2.282 5.039-5.071 5l-95-1.358c-2.734-.039-4.929-2.266-4.929-4.999V276c0-2.761 2.239-5 5-5h4.5c2.761 0 5-2.239 5-5v-1.5c0-2.761 2.239-5 5-5H751c2.761 0 5 2.239 5 5v8.5c0 2.761 2.239 5 5 5zm-624.5-16H45c-2.761 0-5 2.239-5 5v42.5c0 2.761 2.239 5 5 5h11.5c2.761 0 5 2.239 5 5V349c0 2.761 2.239 5 5 5h70c2.761 0 5-2.239 5-5v-82c0-2.761-2.239-5-5-5zM453 294h-97c-2.761 0-5 2.239-5 5v91c0 2.761 2.239 5 5 5h97c2.761 0 5-2.239 5-5v-91c0-2.761-2.239-5-5-5z" clipRule="evenodd"/>
    <path fill="#fff" fillOpacity=".8" d="M790.929 357.928l-.008.5.008-.5zm-95-1.358l-.008.5.008-.5zM791 277.5h-30v1h30v-1zm5.5 5.5c0-3.038-2.462-5.5-5.5-5.5v1c2.485 0 4.5 2.015 4.5 4.5h1zm0 69.928V283h-1v69.928h1zm-5.579 5.5c3.068.043 5.579-2.432 5.579-5.5h-1c0 2.51-2.054 4.535-4.564 4.5l-.015 1zm-95-1.358l95 1.358.015-1-95-1.358-.015 1zm-5.421-5.499c0 3.007 2.415 5.456 5.421 5.499l.015-1c-2.46-.035-4.436-2.039-4.436-4.499h-1zm0-75.571v75.571h1V276h-1zm5.5-5.5c-3.038 0-5.5 2.462-5.5 5.5h1c0-2.485 2.015-4.5 4.5-4.5v-1zm4.5 0H696v1h4.5v-1zm4.5-4.5c0 2.485-2.015 4.5-4.5 4.5v1c3.038 0 5.5-2.462 5.5-5.5h-1zm0-1.5v1.5h1v-1.5h-1zm5.5-5.5c-3.038 0-5.5 2.462-5.5 5.5h1c0-2.485 2.015-4.5 4.5-4.5v-1zm40.5 0h-40.5v1H751v-1zm5.5 5.5c0-3.038-2.462-5.5-5.5-5.5v1c2.485 0 4.5 2.015 4.5 4.5h1zm0 8.5v-8.5h-1v8.5h1zm4.5 4.5c-2.485 0-4.5-2.015-4.5-4.5h-1c0 3.038 2.462 5.5 5.5 5.5v-1zm-716-15h91.5v-1H45v1zm-4.5 4.5c0-2.485 2.015-4.5 4.5-4.5v-1c-3.038 0-5.5 2.462-5.5 5.5h1zm0 42.5V267h-1v42.5h1zM45 314c-2.485 0-4.5-2.015-4.5-4.5h-1c0 3.038 2.462 5.5 5.5 5.5v-1zm11.5 0H45v1h11.5v-1zm5.5 5.5c0-3.038-2.462-5.5-5.5-5.5v1c2.485 0 4.5 2.015 4.5 4.5h1zm0 29.5v-29.5h-1V349h1zm4.5 4.5c-2.485 0-4.5-2.015-4.5-4.5h-1c0 3.038 2.462 5.5 5.5 5.5v-1zm70 0h-70v1h70v-1zm4.5-4.5c0 2.485-2.015 4.5-4.5 4.5v1c3.038 0 5.5-2.462 5.5-5.5h-1zm0-82v82h1v-82h-1zm-4.5-4.5c2.485 0 4.5 2.015 4.5 4.5h1c0-3.038-2.462-5.5-5.5-5.5v1zm219.5 32h97v-1h-97v1zm-4.5 4.5c0-2.485 2.015-4.5 4.5-4.5v-1c-3.038 0-5.5 2.462-5.5 5.5h1zm0 91v-91h-1v91h1zm4.5 4.5c-2.485 0-4.5-2.015-4.5-4.5h-1c0 3.038 2.462 5.5 5.5 5.5v-1zm97 0h-97v1h97v-1zm4.5-4.5c0 2.485-2.015 4.5-4.5 4.5v1c3.038 0 5.5-2.462 5.5-5.5h-1zm0-91v91h1v-91h-1zm-4.5-4.5c2.485 0 4.5 2.015 4.5 4.5h1c0-3.038-2.462-5.5-5.5-5.5v1z"/>
</svg>
